<svg width="22" height="22" viewBox="0 0 22 22" fill="none" xmlns="http://www.w3.org/2000/svg">
<path d="M10.9995 0.439941C5.173 0.439941 0.439453 5.17349 0.439453 10.9999C0.439453 16.2891 4.34067 20.6664 9.42164 21.4296L9.97289 21.5131V13.1918H7.4782V11.5024H9.97289V9.259C9.97289 7.87752 10.3044 6.96766 10.8532 6.39682C11.402 5.82597 12.2129 5.53807 13.3413 5.53807C14.2436 5.53807 14.5947 5.59274 14.9285 5.63369V7.0165H13.7538C13.0873 7.0165 12.5405 7.38838 12.2566 7.88369C11.9728 8.37901 11.8845 8.97041 11.8845 9.57307V11.5015H14.8235L14.562 13.1909H11.8845V21.5262L12.4291 21.4521C17.5823 20.7532 21.5595 16.3408 21.5595 10.9999C21.5595 5.17349 16.8259 0.439941 10.9995 0.439941ZM10.9995 1.39994C16.3071 1.39994 20.5995 5.69231 20.5995 10.9999C20.5995 15.6702 17.2566 19.5112 12.8445 20.3759V14.1509H15.3851L15.9429 10.5415H12.8445V9.57307C12.8445 9.07508 12.9356 8.62888 13.0891 8.36088C13.2427 8.09288 13.3907 7.9765 13.7538 7.9765H15.8885V4.76463L15.4723 4.70838C15.1844 4.66942 14.5271 4.57807 13.3413 4.57807C12.0438 4.57807 10.9301 4.93152 10.1613 5.73119C9.39253 6.53087 9.01289 7.7216 9.01289 9.259V10.5424H6.5182V14.1518H9.01289V20.3459C4.67161 19.4263 1.39945 15.6197 1.39945 10.9999C1.39945 5.69231 5.69182 1.39994 10.9995 1.39994Z" fill="white"/>
</svg>
