<svg width="14" height="18" viewBox="0 0 14 18" fill="none" xmlns="http://www.w3.org/2000/svg">
<path d="M1.90909 1C1.40864 1 1 1.39956 1 1.88889V16.1111C1 16.6004 1.40864 17 1.90909 17H12.0909C12.5914 17 13 16.6004 13 16.1111V1.88889C13 1.39956 12.5914 1 12.0909 1H1.90909ZM1.90909 1.35552H12.0909C12.3962 1.35552 12.6364 1.59027 12.6364 1.88889V16.1111C12.6364 16.4096 12.3963 16.6445 12.0909 16.6445H1.90909C1.60382 16.6445 1.3636 16.4097 1.3636 16.1111V1.88889C1.3636 1.5904 1.60369 1.35552 1.90909 1.35552ZM5.88636 3.66108C5.83982 3.66716 5.79607 3.69159 5.76702 3.7278L4.07946 5.71119L3.13053 4.78335C3.06369 4.71577 2.93991 4.71416 2.87129 4.77976C2.80255 4.84548 2.80167 4.96651 2.86926 5.03335L3.96024 6.10008C4.03139 6.17275 4.16823 6.16717 4.23291 6.08905L6.05109 3.95574C6.15129 3.84711 6.03397 3.63743 5.88635 3.66135L5.88636 3.66108ZM7.00003 5.2666C6.89958 5.2666 6.81816 5.34622 6.81816 5.44443C6.81816 5.54265 6.89958 5.62226 7.00003 5.62226H11C11.1005 5.62226 11.1819 5.54265 11.1819 5.44443C11.1819 5.34622 11.1005 5.2666 11 5.2666H7.00003ZM5.88636 7.57216C5.83982 7.57824 5.79607 7.60267 5.76702 7.63888L4.07946 9.62227L3.13053 8.69443C3.06369 8.62685 2.93991 8.62524 2.87129 8.69084C2.80255 8.75656 2.80167 8.87759 2.86926 8.94443L3.96024 10.0112C4.03139 10.0838 4.16823 10.0783 4.23291 10.0001L6.05109 7.86682C6.15129 7.75819 6.03397 7.54851 5.88635 7.57243L5.88636 7.57216ZM7.00003 9.17781C6.89958 9.17781 6.81816 9.25742 6.81816 9.35564C6.81816 9.45385 6.89958 9.53347 7.00003 9.53347H11C11.1005 9.53347 11.1819 9.45385 11.1819 9.35564C11.1819 9.25742 11.1005 9.17781 11 9.17781H7.00003ZM5.88636 11.4834C5.83982 11.4894 5.79607 11.5139 5.76702 11.5501L4.07946 13.5335L3.13053 12.6056C3.06369 12.5381 2.93991 12.5364 2.87129 12.602C2.80255 12.6678 2.80167 12.7888 2.86926 12.8556L3.96024 13.9224C4.03139 13.995 4.16823 13.9896 4.23291 13.9113L6.05109 11.778C6.15129 11.6694 6.03397 11.4597 5.88635 11.4836L5.88636 11.4834ZM7.00003 13.0889C6.89958 13.0889 6.81816 13.1685 6.81816 13.2667C6.81816 13.3649 6.89958 13.4445 7.00003 13.4445H11C11.1005 13.4445 11.1819 13.3649 11.1819 13.2667C11.1819 13.1685 11.1005 13.0889 11 13.0889H7.00003Z" fill="white" stroke="white" stroke-width="0.5"/>
</svg>
