<svg width="22" height="22" viewBox="0 0 22 22" fill="none" xmlns="http://www.w3.org/2000/svg">
<path d="M6.67945 0.439941C3.23905 0.439941 0.439453 3.23953 0.439453 6.67994V15.3199C0.439453 18.7603 3.23905 21.5599 6.67945 21.5599H15.3195C18.7599 21.5599 21.5595 18.7603 21.5595 15.3199V6.67994C21.5595 3.23953 18.7599 0.439941 15.3195 0.439941H6.67945ZM6.67945 1.39994H15.3195C18.241 1.39994 20.5995 3.75843 20.5995 6.67994V15.3199C20.5995 18.2415 18.241 20.5999 15.3195 20.5999H6.67945C3.75794 20.5999 1.39945 18.2415 1.39945 15.3199V6.67994C1.39945 3.75843 3.75794 1.39994 6.67945 1.39994ZM16.7595 4.27994C16.5048 4.27994 16.2607 4.38108 16.0806 4.56112C15.9006 4.74115 15.7995 4.98533 15.7995 5.23994C15.7995 5.49455 15.9006 5.73873 16.0806 5.91876C16.2607 6.0988 16.5048 6.19994 16.7595 6.19994C17.0141 6.19994 17.2582 6.0988 17.4383 5.91876C17.6183 5.73873 17.7195 5.49455 17.7195 5.23994C17.7195 4.98533 17.6183 4.74115 17.4383 4.56112C17.2582 4.38108 17.0141 4.27994 16.7595 4.27994ZM10.9995 5.71994C8.08908 5.71994 5.71945 8.08956 5.71945 10.9999C5.71945 13.9103 8.08908 16.2799 10.9995 16.2799C13.9098 16.2799 16.2795 13.9103 16.2795 10.9999C16.2795 8.08956 13.9098 5.71994 10.9995 5.71994ZM10.9995 6.67994C13.391 6.67994 15.3195 8.60839 15.3195 10.9999C15.3195 13.3915 13.391 15.3199 10.9995 15.3199C8.6079 15.3199 6.67945 13.3915 6.67945 10.9999C6.67945 8.60839 8.6079 6.67994 10.9995 6.67994Z" fill="white"/>
</svg>
