<svg width="16" height="16" viewBox="0 0 16 16" fill="none" xmlns="http://www.w3.org/2000/svg">
<path d="M15.7719 6.87494C16.1914 6.12428 16.0319 5.52954 15.2934 5.08943C14.5545 4.64958 14.1789 4 14.1676 3.13947C14.1566 2.28008 13.7203 1.84429 12.8606 1.83264C12.0008 1.82148 11.3505 1.44597 10.9099 0.70674C10.4719 -0.03201 9.87545 -0.191602 9.12547 0.228314C8.37511 0.64823 7.62478 0.64858 6.87454 0.228314C6.12393 -0.191824 5.52883 -0.0319846 5.08951 0.70674C4.64955 1.44571 3.99975 1.82121 3.13965 1.83264C2.27954 1.84407 1.84415 2.27996 1.83225 3.13947C1.82084 3.99962 1.44572 4.64954 0.706912 5.08943C-0.0320225 5.52966 -0.19186 6.12444 0.228384 6.87494C0.649009 7.62496 0.649009 8.37571 0.228384 9.12623C-0.19186 9.87613 -0.0320257 10.4715 0.706912 10.9111C1.44572 11.351 1.82073 12.0008 1.83225 12.8603C1.84366 13.7205 2.27941 14.1569 3.13965 14.1683C3.9995 14.1791 4.64952 14.5546 5.08951 15.2933C5.52873 16.0323 6.12396 16.1915 6.87454 15.7719C7.62478 15.3517 8.37514 15.3517 9.12547 15.7719C9.87545 16.1913 10.4715 16.0323 10.9099 15.2933C11.3504 14.5546 12.0008 14.1789 12.8606 14.1683C13.7203 14.1569 14.1566 13.7202 14.1676 12.8603C14.1788 12.0008 14.5545 11.351 15.2934 10.9111C16.0321 10.4715 16.1917 9.87613 15.7719 9.12623C15.3511 8.37571 15.3511 7.62496 15.7719 6.87494ZM3.74487 5.93085C3.74487 5.09984 4.41635 4.42944 5.24557 4.42944C6.07542 4.42944 6.74775 5.1001 6.74775 5.93085C6.74775 6.76036 6.07539 7.43152 5.24557 7.43152C4.41647 7.43152 3.74487 6.76036 3.74487 5.93085ZM5.57914 12.5317C5.49023 12.6682 5.34267 12.7415 5.19163 12.7415C5.10272 12.7415 5.01567 12.7172 4.93593 12.6657C4.72239 12.5243 4.66176 12.2368 4.803 12.0227L10.4184 3.46947C10.5587 3.2522 10.8472 3.19466 11.0614 3.33467C11.2749 3.47567 11.3357 3.76436 11.1943 3.97793L5.57914 12.5317ZM10.752 11.5717C9.92218 11.5717 9.24947 10.8993 9.24947 10.0703C9.24947 9.23967 9.92218 8.56765 10.752 8.56765C11.581 8.56765 12.2546 9.23967 12.2546 10.0703C12.2547 10.8993 11.5811 11.5717 10.752 11.5717Z" fill="white"/>
</svg>
