<svg width="18" height="14" viewBox="0 0 18 14" fill="none" xmlns="http://www.w3.org/2000/svg">
<path d="M12.8128 4.50459L12.5633 4.42041L12.038 6.01844C12.0246 6.0591 12.0314 6.10381 12.0562 6.13853C12.0809 6.17337 12.1206 6.19382 12.163 6.1937H13.7388V5.92736H12.3453L12.8128 4.50459Z" fill="white" stroke="white" stroke-width="0.5"/>
<path d="M3.88903 10.4551C3.71491 10.4551 3.54784 10.5252 3.42471 10.6501C3.30158 10.7749 3.23242 10.9444 3.23242 11.1209C3.23242 11.2975 3.3016 11.4669 3.42471 11.5918C3.54782 11.7166 3.7149 11.7868 3.88903 11.7868C4.06315 11.7868 4.23022 11.7166 4.35334 11.5918C4.47647 11.4669 4.54563 11.2975 4.54563 11.1209C4.5454 10.9444 4.47622 10.7752 4.35311 10.6503C4.22999 10.5255 4.06314 10.4553 3.88903 10.4551ZM3.88903 11.5204C3.72968 11.5204 3.58605 11.4231 3.52508 11.2738C3.46411 11.1245 3.49776 10.9527 3.61044 10.8384C3.72312 10.7241 3.89254 10.69 4.03982 10.7518C4.18697 10.8137 4.283 10.9593 4.283 11.1209C4.283 11.3416 4.10664 11.5204 3.88903 11.5204Z" fill="white" stroke="white" stroke-width="0.5"/>
<path d="M13.6058 10.4551C13.4317 10.4551 13.2646 10.5252 13.1415 10.6501C13.0184 10.7749 12.9492 10.9444 12.9492 11.1209C12.9492 11.2975 13.0184 11.4669 13.1415 11.5918C13.2646 11.7166 13.4317 11.7868 13.6058 11.7868C13.7799 11.7868 13.947 11.7166 14.0701 11.5918C14.1933 11.4669 14.2624 11.2975 14.2624 11.1209C14.2622 10.9444 14.193 10.7752 14.0699 10.6503C13.9468 10.5255 13.7799 10.4553 13.6058 10.4551ZM13.6058 11.5204C13.4465 11.5204 13.3028 11.4231 13.2419 11.2738C13.1809 11.1245 13.2146 10.9527 13.3272 10.8384C13.4399 10.7241 13.6093 10.69 13.7566 10.7518C13.9038 10.8137 13.9998 10.9593 13.9998 11.1209C13.9998 11.3416 13.8234 11.5204 13.6058 11.5204Z" fill="white" stroke="white" stroke-width="0.5"/>
<path d="M17.2109 7.00665L15.1633 5.96793L14.3904 2.96353L14.3902 2.96342C14.375 2.90503 14.3228 2.86425 14.2631 2.86437H10.7177V1.13317C10.7177 1.09785 10.7038 1.06397 10.6792 1.039C10.6546 1.01403 10.6212 1 10.5863 1H1.13132C1.05874 1 1 1.05957 1 1.13317V10.7214C1 10.7567 1.01384 10.7906 1.03846 10.8155C1.06308 10.8405 1.0965 10.8545 1.13132 10.8545H2.07154C1.99075 11.3918 2.14517 11.9382 2.49446 12.3504C2.84376 12.7628 3.35307 13 3.88903 13C4.425 13 4.93431 12.7628 5.2836 12.3504C5.6329 11.9382 5.7873 11.3919 5.70653 10.8545H11.7893C11.7085 11.3918 11.8629 11.9382 12.2122 12.3504C12.5615 12.7628 13.0708 13 13.6067 13C14.1427 13 14.652 12.7628 15.0013 12.3504C15.3506 11.9382 15.505 11.3919 15.4242 10.8545H17.1524C17.1872 10.8545 17.2206 10.8405 17.2452 10.8155C17.2699 10.7906 17.2837 10.7567 17.2837 10.7214V7.12594C17.2837 7.07541 17.2556 7.02927 17.2111 7.0068L17.2109 7.00665ZM4.93951 1.26621H6.77798V4.11366L5.91749 3.67659C5.88044 3.65792 5.83705 3.65792 5.8 3.67659L4.93951 4.11366L4.93951 1.26621ZM3.88895 12.7188C3.47095 12.7188 3.07021 12.5504 2.77461 12.2508C2.47914 11.951 2.31312 11.5446 2.31312 11.1207C2.31312 10.6968 2.47914 10.2905 2.77461 9.9907C3.0702 9.69107 3.47095 9.52271 3.88895 9.52271C4.30695 9.52271 4.7077 9.69107 5.00329 9.9907C5.29876 10.2905 5.46479 10.6968 5.46479 11.1207C5.46432 11.5444 5.29817 11.9507 5.00269 12.2502C4.70734 12.5498 4.30668 12.7183 3.88895 12.7188ZM10.4549 10.5881H5.64999C5.4985 10.0715 5.13386 9.64696 4.65019 9.42366C4.16666 9.20037 3.61136 9.20037 3.12781 9.42366C2.64416 9.64696 2.2795 10.0715 2.12801 10.5881H1.26259V1.26621H4.6769V4.32895C4.67667 4.3752 4.70012 4.41837 4.73881 4.44274C4.77762 4.46724 4.82604 4.46949 4.86696 4.44881L5.85878 3.94514L6.85059 4.44881C6.89151 4.46949 6.93994 4.46724 6.97875 4.44274C7.01744 4.41837 7.04089 4.3752 7.04065 4.32895V1.26621H10.455L10.4549 10.5881ZM13.6066 12.7188C13.1886 12.7188 12.7879 12.5504 12.4923 12.2508C12.1968 11.951 12.0308 11.5446 12.0308 11.1207C12.0308 10.6968 12.1968 10.2905 12.4923 9.9907C12.7879 9.69107 13.1886 9.52271 13.6066 9.52271C14.0246 9.52271 14.4254 9.69107 14.7209 9.9907C15.0164 10.2905 15.1824 10.6968 15.1824 11.1207C15.182 11.5444 15.0158 11.9507 14.7203 12.2502C14.425 12.5498 14.0243 12.7183 13.6066 12.7188ZM17.0209 10.5881H15.3676C15.2161 10.0715 14.8515 9.64696 14.3678 9.42366C13.8843 9.20037 13.329 9.20037 12.8454 9.42366C12.3618 9.64696 11.9971 10.0715 11.8456 10.5881H10.7175V3.13058H14.1619L14.9235 6.09385C14.9331 6.13107 14.9581 6.16234 14.992 6.17946L17.021 7.20795L17.0209 10.5881Z" fill="white" stroke="white" stroke-width="0.5"/>
</svg>
